<svg width="149" height="153" viewBox="0 0 149 153" fill="none" xmlns="http://www.w3.org/2000/svg">
<g clip-path="url(#clip0_206_44)">
<path d="M144.381 83.2182C144.402 83.2191 144.42 83.2025 144.421 83.1813L144.426 83.0466C144.51 80.926 146.297 79.2748 148.418 79.3578L148.554 79.3632C148.575 79.364 148.593 79.3475 148.594 79.3263C148.594 79.3051 148.578 79.2872 148.557 79.2864L148.422 79.281C146.302 79.1971 144.65 77.4107 144.733 75.2904C144.733 75.2897 144.733 75.289 144.733 75.2883L144.739 75.1538C144.739 75.1326 144.723 75.1148 144.702 75.1139C144.68 75.1131 144.663 75.1296 144.662 75.1508L144.653 75.38C144.52 77.455 142.755 79.0562 140.666 78.9744L140.529 78.969C140.508 78.9681 140.49 78.9846 140.489 79.0059C140.488 79.0271 140.505 79.0449 140.526 79.0458L140.661 79.0511C142.781 79.1351 144.433 80.9218 144.35 83.0424C144.35 83.0429 144.35 83.0434 144.35 83.0439L144.344 83.1783C144.343 83.1995 144.36 83.2174 144.381 83.2182Z" fill="url(#paint0_linear_206_44)"/>
<path d="M4.76617 76.2252C4.7874 76.2255 4.80486 76.2086 4.80517 76.1874L4.80717 76.0526C4.83872 73.9305 6.58409 72.2356 8.70601 72.2662L8.84204 72.2682C8.86327 72.2685 8.88073 72.2516 8.88105 72.2304C8.88136 72.2091 8.86441 72.1917 8.84318 72.1914L8.70846 72.1894C6.58657 72.1579 4.89177 70.4128 4.92202 68.2911C4.92203 68.2904 4.92204 68.2897 4.92205 68.289L4.92404 68.1545C4.92435 68.1333 4.9074 68.1158 4.88617 68.1155C4.86495 68.1152 4.84748 68.1321 4.84717 68.1533L4.84378 68.3827C4.7627 70.4603 3.0378 72.1046 0.947474 72.0745L0.8103 72.0725C0.789073 72.0722 0.77161 72.0891 0.771296 72.1104C0.770982 72.1316 0.787935 72.149 0.809162 72.1494L0.943881 72.1514C3.06599 72.1829 4.76091 73.9283 4.73031 76.0502C4.73031 76.0507 4.7303 76.0512 4.73029 76.0517L4.7283 76.1862C4.72799 76.2075 4.74494 76.2249 4.76617 76.2252Z" fill="url(#paint1_linear_206_44)"/>
<path d="M5.85085 91.2868L2.04342 92.18C2.06381 92.3415 2.08685 92.533 2.11257 92.7545C2.14852 92.9824 2.20347 93.2539 2.27742 93.5691C2.36499 93.9424 2.47771 94.2923 2.61556 94.6188C2.75341 94.9452 2.92618 95.2154 3.13388 95.4292C3.34352 95.6513 3.59027 95.8079 3.87416 95.8988C4.15998 95.998 4.49368 96.0029 4.87525 95.9133C5.27342 95.8199 5.57941 95.6694 5.79323 95.4617C6.01729 95.2604 6.16772 95.0063 6.24452 94.6994C6.33156 94.399 6.3552 94.0521 6.31545 93.6589C6.284 93.2637 6.21281 92.8297 6.10189 92.3569L5.85085 91.2868ZM6.84983 92.2995C6.99384 92.9134 7.07251 93.4725 7.08584 93.977C7.09917 94.4814 7.03594 94.9207 6.89617 95.2948C6.76663 95.6753 6.55225 95.9925 6.25302 96.2465C5.95379 96.5005 5.56777 96.6829 5.09495 96.7939C4.19079 97.006 3.44079 96.8494 2.84496 96.324C2.25742 95.7967 1.82062 94.9234 1.53455 93.704C1.45282 93.3556 1.38501 92.9734 1.33113 92.5572C1.2709 92.1512 1.24723 91.7892 1.26012 91.4711L9.72107 89.4862L10.9237 94.6125L10.1896 94.7847L9.18546 90.5045L6.57252 91.1175L6.84983 92.2995Z" fill="url(#paint2_linear_206_44)"/>
<path d="M12.915 100.549C13.3682 101.717 13.4833 102.673 13.2605 103.417C13.0376 104.162 12.5171 104.693 11.699 105.01C11.2304 105.192 10.7969 105.264 10.3985 105.227C10.0081 105.187 9.64957 105.052 9.32282 104.822C9.00402 104.589 8.7091 104.265 8.43806 103.849C8.17805 103.438 7.93861 102.951 7.71973 102.387L7.28506 101.267L4.09197 102.506L3.77753 101.696L11.8794 98.5517C12.0698 98.8069 12.2549 99.1189 12.4346 99.4878C12.6254 99.8616 12.7855 100.215 12.915 100.549ZM12.2259 100.857C12.1088 100.556 11.9967 100.302 11.8896 100.097C11.7936 99.8966 11.7083 99.724 11.6339 99.5793L7.98802 100.994L8.3857 102.019C8.55525 102.456 8.73168 102.84 8.91498 103.171C9.1093 103.507 9.32176 103.771 9.55236 103.965C9.79398 104.164 10.0641 104.283 10.3628 104.322C10.6614 104.362 11.0013 104.308 11.3826 104.16C11.748 104.018 12.0205 103.825 12.2003 103.582C12.3831 103.346 12.4942 103.079 12.5337 102.781C12.5841 102.487 12.5771 102.174 12.5125 101.843C12.4478 101.512 12.3523 101.183 12.2259 100.857Z" fill="url(#paint3_linear_206_44)"/>
<path d="M15.663 116.125C15.0073 116.505 14.3733 116.746 13.7611 116.845C13.1488 116.945 12.5769 116.927 12.0454 116.792C11.5256 116.661 11.0547 116.427 10.6328 116.09C10.2108 115.754 9.85863 115.343 9.57619 114.857C9.29374 114.37 9.111 113.861 9.02797 113.328C8.94494 112.794 8.9729 112.266 9.11187 111.742C9.26248 111.221 9.53265 110.719 9.92238 110.236C10.3121 109.754 10.8348 109.322 11.4905 108.941C12.1463 108.56 12.7766 108.322 13.3815 108.227C13.9937 108.128 14.5598 108.144 15.0796 108.275C15.6111 108.41 16.0878 108.646 16.5097 108.982C16.9317 109.318 17.2839 109.729 17.5663 110.216C17.8488 110.702 18.0315 111.212 18.1145 111.745C18.1976 112.278 18.1638 112.805 18.0132 113.326C17.8742 113.85 17.6099 114.353 17.2201 114.836C16.8378 115.314 16.3187 115.744 15.663 116.125ZM15.2008 115.329C15.7166 115.029 16.1385 114.696 16.4667 114.328C16.8023 113.955 17.0431 113.564 17.1892 113.154C17.3353 112.744 17.3815 112.323 17.3277 111.891C17.2856 111.463 17.1404 111.034 16.8922 110.607C16.644 110.18 16.3419 109.838 15.9861 109.582C15.6419 109.328 15.2555 109.163 14.8269 109.087C14.3984 109.011 13.9393 109.026 13.4497 109.133C12.9674 109.236 12.4685 109.437 11.9527 109.737C11.437 110.036 11.0114 110.372 10.6758 110.745C10.3476 111.113 10.1105 111.502 9.96435 111.912C9.81824 112.322 9.76625 112.741 9.80838 113.17C9.8548 113.606 10.0021 114.038 10.2503 114.465C10.4985 114.892 10.7984 115.231 11.15 115.48C11.5058 115.736 11.8981 115.902 12.3266 115.979C12.7552 116.055 13.2106 116.042 13.6928 115.939C14.1824 115.832 14.6851 115.628 15.2008 115.329Z" fill="url(#paint4_linear_206_44)"/>
<path d="M15.8201 123.933C15.7286 123.821 15.6276 123.683 15.517 123.521C15.4052 123.37 15.2947 123.207 15.1853 123.033C15.0748 122.87 14.9729 122.711 14.8797 122.556C14.7931 122.396 14.7227 122.256 14.6684 122.135L21.2775 116.751C21.4074 116.843 21.5415 116.954 21.6797 117.083C21.8245 117.207 21.9654 117.339 22.1024 117.48C22.2513 117.623 22.3883 117.764 22.5133 117.904C22.6437 118.05 22.76 118.186 22.8622 118.312C23.1636 118.682 23.4191 119.056 23.6287 119.435C23.8437 119.82 23.984 120.195 24.0498 120.559C24.1156 120.923 24.0921 121.272 23.9792 121.605C23.8784 121.94 23.6595 122.245 23.3226 122.519C22.9527 122.821 22.5576 122.983 22.1373 123.007C21.729 123.032 21.3462 122.926 20.9888 122.69C21.104 122.926 21.1859 123.161 21.2346 123.396C21.2832 123.631 21.2893 123.868 21.2528 124.107C21.2229 124.34 21.1358 124.57 20.9915 124.798C20.8591 125.026 20.6575 125.251 20.3866 125.472C19.7393 125.999 19.034 126.145 18.2707 125.91C17.5141 125.669 16.6972 125.01 15.8201 123.933ZM18.3782 120.234L15.6731 122.437C15.7406 122.547 15.8452 122.709 15.9868 122.924C16.135 123.133 16.2925 123.339 16.4593 123.544C16.7069 123.848 16.9662 124.126 17.2372 124.378C17.5136 124.636 17.7934 124.831 18.0767 124.963C18.36 125.095 18.6479 125.152 18.9405 125.133C19.2331 125.115 19.5247 124.987 19.8154 124.75C20.0796 124.535 20.2599 124.311 20.3564 124.079C20.4594 123.841 20.4905 123.596 20.4496 123.343C20.4154 123.085 20.3159 122.815 20.151 122.532C19.9916 122.255 19.7881 121.965 19.5405 121.661L18.3782 120.234ZM18.9529 119.766L20.0184 121.074C20.2175 121.318 20.4223 121.536 20.6329 121.727C20.8502 121.913 21.0696 122.047 21.2912 122.13C21.5248 122.215 21.7586 122.239 21.9925 122.202C22.2329 122.16 22.4787 122.037 22.7297 121.832C22.9543 121.649 23.1022 121.446 23.1734 121.223C23.2513 120.995 23.2644 120.748 23.2128 120.482C23.1666 120.223 23.0611 119.952 22.8962 119.669C22.738 119.38 22.5351 119.084 22.2875 118.78C22.0884 118.536 21.9123 118.333 21.7592 118.172C21.6114 118.018 21.4819 117.892 21.3706 117.796L18.9529 119.766Z" fill="url(#paint5_linear_206_44)"/>
<path d="M21.4486 130.345L27.4086 123.793L28.042 124.37L23.1914 129.701C23.7022 129.533 24.3209 129.353 25.0477 129.161C25.7808 128.976 26.5446 128.801 27.339 128.637C28.1392 128.466 28.9342 128.314 29.724 128.18C30.5259 128.046 31.2509 127.945 31.8991 127.878L32.4096 128.343L26.4497 134.894L25.8163 134.318L30.8388 128.797C30.4548 128.839 30.0146 128.905 29.5182 128.995C29.0219 129.085 28.496 129.188 27.9406 129.305C27.3972 129.421 26.8392 129.547 26.2666 129.683C25.6997 129.812 25.1512 129.947 24.621 130.086C24.0965 130.22 23.605 130.348 23.1465 130.473C22.6942 130.603 22.3079 130.723 21.9875 130.835L21.4486 130.345Z" fill="url(#paint6_linear_206_44)"/>
<path d="M33.3929 140.282C32.9181 139.965 32.532 139.584 32.2346 139.14C31.9442 138.7 31.7555 138.215 31.6684 137.686C31.5884 137.161 31.6183 136.602 31.7581 136.009C31.9097 135.414 32.1913 134.808 32.6029 134.192C33.0145 133.575 33.4709 133.091 33.9721 132.739C34.4851 132.385 35.0063 132.149 35.5357 132.031C36.0652 131.913 36.5898 131.91 37.1096 132.022C37.6341 132.126 38.1196 132.327 38.566 132.625C38.8424 132.81 39.0821 132.995 39.2852 133.182C39.4883 133.369 39.656 133.547 39.7882 133.718C39.9252 133.881 40.035 134.031 40.1176 134.168C40.2049 134.298 40.2663 134.406 40.3017 134.491L39.6492 134.962C39.543 134.737 39.3848 134.483 39.1747 134.199C38.9764 133.913 38.6752 133.635 38.2713 133.366C37.8107 133.058 37.3548 132.867 36.9035 132.791C36.4593 132.719 36.0256 132.748 35.6025 132.875C35.1795 133.002 34.7776 133.221 34.3969 133.53C34.0234 133.844 33.6781 134.238 33.3611 134.713C33.0347 135.202 32.7957 135.683 32.6442 136.155C32.5044 136.625 32.4557 137.074 32.4979 137.502C32.5402 137.93 32.6746 138.327 32.9012 138.693C33.1349 139.065 33.4644 139.392 33.8896 139.676C34.3572 139.988 34.7754 140.206 35.1439 140.329C35.5243 140.45 35.8267 140.518 36.0512 140.535L35.8416 141.286C35.7683 141.289 35.6549 141.275 35.5013 141.244C35.3525 141.206 35.1694 141.15 34.952 141.077C34.7347 141.003 34.4961 140.9 34.2362 140.768C33.9716 140.643 33.6905 140.48 33.3929 140.282Z" fill="url(#paint7_linear_206_44)"/>
<path d="M48.4052 138.254L48.0757 138.933L45.5237 137.693L41.9827 144.981L41.201 144.601L44.742 137.313L42.19 136.073L42.5195 135.395L48.4052 138.254Z" fill="url(#paint8_linear_206_44)"/>
<path d="M53.0958 145.459L65.5918 148.141L65.4389 148.853L52.943 146.172L53.0958 145.459Z" fill="url(#paint9_linear_206_44)"/>
<path d="M76.6889 144.46L76.6997 144.715C76.7395 145.651 76.7438 146.555 76.7125 147.426C76.6898 148.297 76.5761 149.133 76.3714 149.935C76.2763 150.306 76.1505 150.657 75.994 150.987C75.846 151.318 75.658 151.611 75.4302 151.868C75.2023 152.125 74.9299 152.337 74.6129 152.504C74.3044 152.671 73.942 152.772 73.5256 152.806L73.4048 152.07C73.6928 152.023 73.9453 151.944 74.1622 151.833C74.3874 151.712 74.5813 151.559 74.7439 151.373C74.9151 151.187 75.0593 150.967 75.1765 150.715C75.3019 150.454 75.4128 150.155 75.5094 149.818C75.7014 149.119 75.813 148.334 75.8443 147.463C75.884 146.592 75.8809 145.615 75.835 144.534L75.8013 143.743L80.4109 143.547L80.7868 152.396L79.9185 152.432L79.5746 144.337L76.6889 144.46Z" fill="url(#paint10_linear_206_44)"/>
<path d="M85.43 151.909L83.8372 143.196L88.866 142.277L89.0016 143.019L84.8277 143.782L85.3817 146.812L89.103 146.131L89.2363 146.861L85.515 147.541L86.1493 151.011L90.6501 150.188L90.7857 150.93L85.43 151.909Z" fill="url(#paint11_linear_206_44)"/>
<path d="M104.843 146.506L95.4119 149.964L92.3628 141.649L93.1788 141.35L95.9683 148.957L99.46 147.677L96.6705 140.069L97.4865 139.77L100.276 147.378L103.768 146.097L100.978 138.49L101.794 138.191L104.843 146.506Z" fill="url(#paint12_linear_206_44)"/>
<path d="M112.981 140.734C112.797 140.598 112.543 140.424 112.221 140.213C111.907 139.997 111.559 139.767 111.176 139.523C110.79 139.272 110.395 139.016 109.992 138.754C109.584 138.486 109.2 138.238 108.838 138.011C108.477 137.784 108.158 137.586 107.882 137.416C107.607 137.247 107.408 137.129 107.287 137.064C107.755 138.027 108.29 139.059 108.893 140.159C109.499 141.247 110.141 142.387 110.822 143.58L110.094 144.031C109.31 142.623 108.569 141.268 107.871 139.966C107.18 138.66 106.541 137.397 105.954 136.176L106.606 135.772C107.048 135.999 107.54 136.275 108.083 136.6C108.621 136.918 109.169 137.259 109.727 137.625C110.288 137.979 110.835 138.336 111.37 138.696C111.907 139.044 112.386 139.364 112.807 139.654C112.734 139.148 112.656 138.579 112.575 137.948C112.497 137.304 112.419 136.655 112.344 136C112.271 135.334 112.211 134.688 112.165 134.065C112.115 133.435 112.086 132.871 112.078 132.374L112.697 131.99C113.53 133.057 114.375 134.192 115.232 135.395C116.097 136.593 116.986 137.856 117.901 139.184L117.152 139.649C116.385 138.511 115.644 137.431 114.93 136.41C114.219 135.378 113.535 134.438 112.879 133.592C112.884 133.729 112.902 133.959 112.931 134.281C112.961 134.604 112.997 134.978 113.04 135.402C113.083 135.827 113.135 136.281 113.195 136.765C113.25 137.243 113.305 137.71 113.359 138.168C113.408 138.619 113.456 139.035 113.503 139.418C113.557 139.795 113.604 140.097 113.644 140.323L112.981 140.734Z" fill="url(#paint13_linear_206_44)"/>
<path d="M121.655 136.323L115.864 129.622L119.732 126.28L120.225 126.85L117.015 129.625L119.029 131.955L121.891 129.481L122.376 130.042L119.513 132.516L121.82 135.185L125.282 132.193L125.775 132.763L121.655 136.323Z" fill="url(#paint14_linear_206_44)"/>
<path d="M129.14 129.556L122.439 123.764L122.998 123.116L128.452 127.83C128.27 127.323 128.074 126.709 127.865 125.988C127.661 125.26 127.467 124.501 127.282 123.711C127.091 122.915 126.919 122.124 126.765 121.338C126.61 120.54 126.491 119.818 126.408 119.171L126.859 118.649L133.56 124.44L133 125.088L127.353 120.208C127.405 120.591 127.483 121.029 127.585 121.523C127.687 122.017 127.804 122.54 127.935 123.092C128.065 123.632 128.205 124.187 128.355 124.756C128.499 125.319 128.647 125.864 128.8 126.391C128.947 126.912 129.088 127.4 129.224 127.855C129.366 128.304 129.496 128.687 129.616 129.004L129.14 129.556ZM123.987 120.643C123.675 121.004 123.319 121.214 122.919 121.274C122.518 121.333 122.106 121.236 121.683 120.983L121.991 120.354C122.243 120.504 122.496 120.577 122.75 120.57C123.002 120.552 123.234 120.42 123.446 120.175C123.657 119.93 123.751 119.685 123.727 119.439C123.703 119.181 123.597 118.938 123.411 118.71L123.99 118.314C124.301 118.696 124.457 119.09 124.456 119.495C124.456 119.899 124.299 120.282 123.987 120.643Z" fill="url(#paint15_linear_206_44)"/>
<path d="M139.429 115.943C138.899 115.95 138.353 115.991 137.79 116.067C137.231 116.136 136.683 116.236 136.144 116.368C135.606 116.5 135.091 116.658 134.601 116.841C134.116 117.016 133.68 117.209 133.295 117.418L136.993 119.771L136.527 120.504L129.054 115.75L129.521 115.017L133.004 117.233C132.933 116.804 132.845 116.324 132.739 115.792C132.63 115.248 132.517 114.712 132.4 114.182C132.286 113.646 132.174 113.14 132.062 112.665C131.95 112.19 131.849 111.802 131.757 111.502L132.32 110.617C132.41 110.968 132.516 111.388 132.638 111.88C132.752 112.367 132.866 112.878 132.979 113.415C133.092 113.951 133.201 114.486 133.307 115.017C133.411 115.538 133.498 116.003 133.571 116.412C133.833 116.286 134.137 116.166 134.482 116.052C134.824 115.927 135.188 115.815 135.574 115.717C135.957 115.607 136.349 115.514 136.752 115.437C137.152 115.348 137.544 115.279 137.928 115.231C138.317 115.175 138.682 115.14 139.025 115.126C139.372 115.104 139.68 115.104 139.95 115.124L139.429 115.943Z" fill="url(#paint16_linear_206_44)"/>
<path d="M141.791 111.734L133.754 108.012L135.902 103.373L136.587 103.69L134.803 107.54L137.598 108.834L139.188 105.401L139.861 105.713L138.271 109.146L141.472 110.628L143.395 106.476L144.079 106.793L141.791 111.734Z" fill="url(#paint17_linear_206_44)"/>
<path d="M137.83 97.905C138.199 96.708 138.701 95.8866 139.338 95.4407C139.974 94.9948 140.712 94.901 141.551 95.1593C142.031 95.3072 142.416 95.5194 142.705 95.7957C142.987 96.0695 143.184 96.3978 143.298 96.7805C143.404 97.1608 143.434 97.598 143.389 98.0923C143.338 98.5759 143.224 99.1067 143.046 99.6849L142.692 100.833L145.966 101.841L145.71 102.672L137.404 100.114C137.413 99.7958 137.461 99.4362 137.549 99.0354C137.631 98.6238 137.725 98.247 137.83 97.905ZM138.562 98.0903C138.467 98.3997 138.397 98.6681 138.354 98.8955C138.305 99.1123 138.265 99.3005 138.234 99.4602L141.971 100.611L142.295 99.5607C142.433 99.1128 142.532 98.7022 142.594 98.3289C142.65 97.9449 142.647 97.6054 142.587 97.3103C142.52 97.0046 142.382 96.7437 142.172 96.5275C141.963 96.3114 141.662 96.1431 141.271 96.0228C140.897 95.9074 140.564 95.8895 140.272 95.969C139.982 96.0403 139.729 96.1809 139.513 96.3907C139.291 96.5899 139.103 96.8395 138.948 97.1395C138.794 97.4395 138.665 97.7564 138.562 98.0903Z" fill="url(#paint18_linear_206_44)"/>
<path d="M3.01333 46.6078C3.17031 46.1942 3.28733 45.8443 3.3644 45.5581L3.64014 45.6627C3.57603 46.1642 3.83807 46.679 4.42627 47.2071L11.5517 53.6179L11.468 53.8385L1.51915 53.9114C0.865565 53.9157 0.451096 54.1212 0.275742 54.5279L0 54.4232C0.167103 54.066 0.367511 53.5795 0.601222 52.9637C0.90121 52.1732 1.11067 51.5797 1.2296 51.1832L1.50534 51.2879C1.39117 51.6441 1.3412 51.9143 1.35544 52.0985C1.36396 52.27 1.46014 52.3906 1.64397 52.4604C1.80023 52.5197 2.03715 52.5465 2.35475 52.5408L9.93342 52.5621L4.95434 48.1015C4.52776 47.7293 4.1858 47.4944 3.92844 47.3967C3.6435 47.2886 3.39833 47.3112 3.19291 47.4646C2.99097 47.6088 2.80867 47.8813 2.646 48.2823L2.37025 48.1776C2.59666 47.6642 2.81102 47.1409 3.01333 46.6078Z" fill="url(#paint19_linear_206_44)"/>
<path d="M16.4827 40.636C17.1439 40.7053 17.5848 40.5652 17.8053 40.2155L18.062 40.3608C17.8426 40.6885 17.5706 41.1389 17.2461 41.7121C16.8296 42.4479 16.5324 43.0027 16.3547 43.3765L16.098 43.2312C16.2601 42.905 16.3481 42.6498 16.362 42.4656C16.3807 42.2729 16.3088 42.1305 16.1463 42.0384C16.0094 41.9609 15.7745 41.907 15.4414 41.8766L13.608 41.7029L11.8425 44.8212L12.5579 45.8024C12.8092 46.1367 13.0418 46.3645 13.2557 46.4855C13.4782 46.6115 13.6971 46.6338 13.9126 46.5524C14.1244 46.4577 14.3467 46.2446 14.5795 45.9132L14.8362 46.0586C14.6652 46.3007 14.432 46.6827 14.1366 47.2045C13.8411 47.7264 13.6432 48.1058 13.543 48.3428L13.2863 48.1975C13.3572 47.9326 13.3403 47.6631 13.2355 47.3892C13.1222 47.1104 12.9399 46.8038 12.6886 46.4695L7.87793 40.0008L7.99417 39.7955L16.4827 40.636ZM13.2932 41.6602L9.21272 41.2649L11.644 44.5732L13.2932 41.6602Z" fill="url(#paint20_linear_206_44)"/>
<path d="M14.307 30.9449C14.1061 31.2369 13.9779 31.4671 13.9223 31.6354C13.8728 31.7959 13.8961 31.9506 13.9923 32.0995C14.0884 32.2484 14.2843 32.4371 14.5798 32.6655L19.2 36.2371C19.4955 36.4656 19.7275 36.6076 19.8958 36.6631C20.0641 36.7187 20.2196 36.7023 20.3625 36.6139C20.5036 36.5117 20.6824 36.3207 20.8989 36.0407L21.4671 35.3056C21.8819 34.769 22.0442 34.2296 21.9538 33.6875C21.8694 33.1376 21.4818 32.546 20.7909 31.9125L20.9984 31.6442C21.2215 31.8539 21.5313 32.1121 21.928 32.4188C22.3325 32.7314 22.8124 33.059 23.3679 33.4013C22.9537 33.8889 22.2836 34.7315 21.3577 35.9294C20.2453 37.3683 19.4152 38.4662 18.8673 39.2232L18.634 39.0428C18.8349 38.7508 18.9601 38.5245 19.0097 38.364C19.0652 38.1957 19.0449 38.0371 18.9488 37.8882C18.8526 37.7393 18.6567 37.5506 18.3612 37.3221L13.7411 33.7506C13.4455 33.5221 13.2136 33.3801 13.0453 33.3245C12.8769 33.269 12.7184 33.2893 12.5695 33.3854C12.4266 33.4738 12.2392 33.652 12.0071 33.92L11.7738 33.7396C12.0497 33.4309 12.4462 32.9422 12.9632 32.2733C13.4443 31.651 13.8144 31.1481 14.0737 30.7645L14.307 30.9449Z" fill="url(#paint21_linear_206_44)"/>
<path d="M28.7962 25.4531C29.151 25.8211 29.5784 26.2148 30.0784 26.6341C29.5979 27.0564 28.8128 27.793 27.7229 28.844C26.4137 30.1064 25.4332 31.0724 24.7814 31.742L24.5767 31.5297C24.8178 31.2699 24.9745 31.0641 25.0468 30.9125C25.1261 30.754 25.129 30.5941 25.0555 30.4329C24.9819 30.2716 24.8155 30.0566 24.5562 29.7876L20.5026 25.584C20.2433 25.3151 20.0344 25.141 19.8759 25.0616C19.7175 24.9823 19.5576 24.9794 19.3963 25.0529C19.2422 25.1196 19.0309 25.2688 18.7625 25.5003L18.5577 25.288C19.2505 24.6609 20.2515 23.7161 21.5607 22.4537C22.5514 21.4983 23.2453 20.8087 23.6424 20.3848C24.0023 20.8572 24.346 21.2632 24.6736 21.6029C24.9397 21.8789 25.1619 22.088 25.3401 22.2303L25.0959 22.4657C24.4868 21.9332 23.974 21.6493 23.5575 21.6139C23.1412 21.5646 22.7137 21.7515 22.2749 22.1746L21.5 22.9219C21.2453 23.1675 21.0782 23.3696 20.9988 23.5281C20.9197 23.6727 20.917 23.8256 20.9905 23.9868C21.0641 24.1481 21.2305 24.3632 21.4898 24.6321L23.3938 26.6065L24.2748 25.7569C24.5013 25.5385 24.6201 25.3147 24.6312 25.0855C24.6355 24.8491 24.594 24.6433 24.5068 24.4679C24.4128 24.2854 24.2811 24.0709 24.1118 23.8245L24.3559 23.5891C24.5667 23.8502 24.8086 24.1222 25.0816 24.4053L25.4705 24.8087C25.7367 25.0847 26.1401 25.4605 26.6807 25.9362L26.4366 26.1716C26.0665 25.8729 25.7292 25.686 25.4247 25.6109C25.1201 25.5358 24.8051 25.6553 24.4796 25.9692L23.5985 26.8188L25.5434 28.8357C25.8027 29.1046 26.0116 29.2787 26.1701 29.3581C26.3285 29.4374 26.4849 29.4438 26.639 29.377C26.7935 29.2964 26.9981 29.1332 27.2528 28.8876L28.0277 28.1403C28.3816 27.7991 28.6065 27.4729 28.7025 27.1618C28.7986 26.8507 28.7803 26.5201 28.6476 26.17C28.508 25.8129 28.2411 25.3874 27.8468 24.8936L28.091 24.6581C28.254 24.8697 28.4891 25.1347 28.7962 25.4531Z" fill="url(#paint22_linear_206_44)"/>
<path d="M34.6406 12.4519C34.3692 12.6643 34.1901 12.8545 34.1033 13.0225C34.0109 13.1825 33.9965 13.36 34.0602 13.5551C34.1183 13.7422 34.2539 13.9892 34.467 14.296L38.6473 20.316L38.3687 20.5095L28.8639 17.1635L32.5059 22.4083C32.7246 22.7232 32.9114 22.9406 33.0664 23.0603C33.2295 23.1745 33.4129 23.2147 33.6168 23.1808C33.8151 23.1389 34.0814 23.0138 34.4156 22.8057L34.5838 23.0479C34.2763 23.2256 33.8561 23.4994 33.3231 23.8695C32.8386 24.206 32.4715 24.4788 32.2219 24.6881L32.0536 24.4458C32.325 24.2334 32.507 24.0473 32.5994 23.8873C32.6862 23.7193 32.7005 23.5418 32.6425 23.3547C32.5788 23.1596 32.4404 22.9086 32.2273 22.6017L28.9806 17.9262C28.7675 17.6194 28.5891 17.4141 28.4453 17.3105C28.3015 17.2069 28.1442 17.1785 27.9733 17.2254C27.8104 17.2666 27.5781 17.3801 27.2761 17.5659L27.1079 17.3236C27.3912 17.1628 27.7751 16.9141 28.2596 16.5777C28.6957 16.2749 29.0587 16.0049 29.3487 15.7675L36.9472 18.4624L34.1884 14.4895C33.9697 14.1745 33.7788 13.96 33.6157 13.8458C33.4607 13.726 33.2841 13.6871 33.0858 13.7291C32.8819 13.7629 32.6129 13.8839 32.2787 14.0921L32.1104 13.8498C32.418 13.6722 32.8382 13.3983 33.3712 13.0282C33.8557 12.6918 34.2227 12.4189 34.4724 12.2097L34.6406 12.4519Z" fill="url(#paint23_linear_206_44)"/>
<path d="M45.3776 6.62219C45.5947 7.23751 45.8132 7.7759 46.0332 8.23736C46.2532 8.69883 46.4399 9.05633 46.5935 9.30986L46.2873 9.45582C45.9379 8.86 45.6273 8.42541 45.3554 8.15206C45.0835 7.87871 44.785 7.73238 44.46 7.71307C44.1307 7.68489 43.7265 7.78503 43.2473 8.01347L42.3953 8.4196L45.3715 14.6627C45.5492 15.0354 45.7137 15.2891 45.8651 15.4239C46.0164 15.5587 46.1957 15.6148 46.4028 15.5923C46.6099 15.5698 46.9173 15.4723 47.3251 15.2996L47.452 15.5659C46.9779 15.7592 46.3193 16.0569 45.4762 16.4588C44.5888 16.8818 43.9384 17.2082 43.5252 17.4379L43.3982 17.1716C43.7891 16.9635 44.0585 16.7861 44.2064 16.6394C44.3543 16.4926 44.4235 16.318 44.4141 16.1156C44.4047 15.9131 44.3112 15.6255 44.1335 15.2528L41.1574 9.00975L40.3054 9.41587C39.8262 9.64432 39.4939 9.89531 39.3085 10.1689C39.1188 10.4335 39.0446 10.7575 39.0857 11.1409C39.1269 11.5242 39.2689 12.0392 39.5118 12.6858L39.2056 12.8317C39.0969 12.5351 38.9367 12.1649 38.7252 11.7212C38.5052 11.2597 38.2246 10.7509 37.8832 10.1948C38.6325 9.87032 39.8901 9.28713 41.6561 8.44527C43.4132 7.60764 44.6537 6.99994 45.3776 6.62219Z" fill="url(#paint24_linear_206_44)"/>
<path d="M52.1438 4.57274C51.8142 4.70318 51.5794 4.82278 51.4395 4.93154C51.3089 5.03719 51.242 5.17862 51.2388 5.35582C51.2356 5.53302 51.293 5.79885 51.411 6.15331L53.2555 11.694C53.3735 12.0485 53.4869 12.2957 53.5957 12.4356C53.7044 12.5756 53.8427 12.6487 54.0106 12.655C54.1878 12.6581 54.4474 12.6132 54.7894 12.52L54.8826 12.7999C54.4442 12.9147 53.8472 13.0979 53.0917 13.3494C52.2895 13.6165 51.6971 13.8292 51.3147 13.9876L51.2215 13.7078C51.5511 13.5773 51.7812 13.4593 51.9118 13.3536C52.0518 13.2449 52.1233 13.1019 52.1265 12.9247C52.1297 12.7475 52.0723 12.4817 51.9543 12.1272L50.1098 6.58648C49.9918 6.23203 49.8784 5.98483 49.7697 5.84489C49.6609 5.70495 49.5179 5.63339 49.3407 5.63021C49.1729 5.62392 48.9179 5.66735 48.5759 5.76048L48.4828 5.48064C48.8838 5.37821 49.4855 5.19347 50.2877 4.92642C51.0339 4.67801 51.6215 4.46684 52.0506 4.29291L52.1438 4.57274Z" fill="url(#paint25_linear_206_44)"/>
<path d="M64.0916 1.80363C63.7576 1.88869 63.5171 1.99061 63.3699 2.1094C63.2209 2.21854 63.1363 2.37524 63.1159 2.57951C63.0937 2.77413 63.1183 3.05479 63.1897 3.42149L64.5904 10.6155L64.2575 10.6803L56.9062 3.78854L58.1265 10.0561C58.1998 10.4325 58.2833 10.7067 58.3769 10.8788C58.4801 11.049 58.6319 11.1596 58.8321 11.2108C59.0305 11.2523 59.3246 11.2451 59.7143 11.1893L59.7707 11.4788C59.4176 11.5174 58.9227 11.5988 58.2858 11.7228C57.7068 11.8355 57.2609 11.9374 56.9481 12.0283L56.8917 11.7388C57.2257 11.6538 57.4672 11.5567 57.6162 11.4475C57.7634 11.3287 57.848 11.172 57.8702 10.9774C57.8906 10.7731 57.865 10.4876 57.7936 10.121L56.7058 4.53368C56.6344 4.16698 56.5538 3.90725 56.4639 3.75447C56.3741 3.6017 56.2415 3.51233 56.0662 3.48637C55.9005 3.45853 55.6421 3.46879 55.291 3.51712L55.2346 3.22763C55.5587 3.19458 56.0102 3.12168 56.5892 3.00895C57.1103 2.9075 57.5514 2.8066 57.9124 2.70625L63.7812 8.23404L62.8568 3.48631C62.7835 3.10996 62.6953 2.83669 62.592 2.66649C62.4984 2.49442 62.3524 2.38763 62.1541 2.34613C61.9538 2.29498 61.6588 2.29733 61.269 2.35319L61.2127 2.06369C61.5657 2.025 62.0607 1.94365 62.6976 1.81965C63.2766 1.70692 63.7225 1.60508 64.0353 1.51413L64.0916 1.80363Z" fill="url(#paint26_linear_206_44)"/>
<path d="M76.0578 8.52018C76.342 9.12122 76.6907 9.42519 77.104 9.4321L77.1131 9.72689C76.7191 9.70955 76.193 9.71105 75.5346 9.73138C74.6895 9.75749 74.0611 9.79165 73.6493 9.83388L73.6402 9.53908C74.0032 9.5082 74.267 9.45088 74.4316 9.3671C74.606 9.28303 74.6904 9.14764 74.6846 8.96094C74.6797 8.80372 74.6038 8.57492 74.4568 8.27455L73.6532 6.61746L70.0715 6.72809L69.6045 7.84903C69.4493 8.23742 69.3755 8.55445 69.3831 8.80011C69.391 9.05559 69.4856 9.2543 69.6671 9.39624C69.858 9.52804 70.1555 9.60737 70.5596 9.63423L70.5687 9.92902C70.273 9.90865 69.8255 9.90772 69.2261 9.92623C68.6266 9.94475 68.1997 9.97269 67.9451 10.0101L67.936 9.71527C68.1992 9.63829 68.4206 9.48391 68.6003 9.25214C68.7798 9.01054 68.9471 8.69554 69.1023 8.30716L72.1321 0.836752L72.3679 0.829468L76.0578 8.52018ZM73.5262 6.32631L71.745 2.6339L70.1803 6.42965L73.5262 6.32631Z" fill="url(#paint27_linear_206_44)"/>
<path d="M86.7752 6.58839L86.2879 9.19766C86.2193 9.56489 86.2083 9.83787 86.2549 10.0166C86.3015 10.1953 86.4161 10.3317 86.5985 10.4258C86.781 10.5199 87.0878 10.6172 87.5191 10.7178L87.465 11.0077C86.9678 10.8848 86.2603 10.7377 85.3422 10.5662C84.5111 10.411 83.8899 10.3099 83.4786 10.2631L83.5327 9.9732C83.8842 10.0189 84.1427 10.0271 84.3082 9.99802C84.4833 9.97072 84.6152 9.88035 84.7039 9.72689C84.7925 9.57343 84.8712 9.31309 84.9397 8.94586L86.2827 1.75588C86.3513 1.38865 86.3719 1.11747 86.3446 0.942356C86.3173 0.767238 86.2269 0.635345 86.0735 0.546677C85.9297 0.459812 85.6856 0.374226 85.3413 0.289918L85.3955 0C85.796 0.104802 86.3828 0.229403 87.1559 0.373804L88.7241 0.65172C88.9096 0.676351 89.1182 0.710327 89.3502 0.753647C90.4809 0.964833 91.297 1.38731 91.7987 2.02107C92.3022 2.64517 92.4728 3.3921 92.3103 4.26186C92.211 4.79337 91.9946 5.283 91.6609 5.73074C91.3387 6.17061 90.8619 6.50159 90.2303 6.72367C89.6084 6.94755 88.8288 6.97195 87.8914 6.79687L86.7752 6.58839ZM88.9363 0.961382C88.6368 0.905427 88.4033 0.896833 88.2361 0.9356C88.0785 0.976173 87.9544 1.07802 87.864 1.24114C87.7735 1.40426 87.6958 1.65977 87.6308 2.00768L86.8294 6.29847L87.8006 6.47987C88.7477 6.65677 89.4469 6.52734 89.8983 6.0916C90.3612 5.648 90.6721 5.00099 90.8309 4.15056C91.006 3.21316 90.9466 2.48699 90.6528 1.97205C90.3686 1.45892 89.7964 1.12203 88.9363 0.961382Z" fill="url(#paint28_linear_206_44)"/>
<path d="M100.202 13.3276C100.256 13.9902 100.476 14.3975 100.86 14.5495L100.765 14.8286C100.402 14.6737 99.9092 14.4898 99.2858 14.2771C98.4856 14.004 97.8854 13.8147 97.4851 13.7093L97.5804 13.4302C97.931 13.529 98.1981 13.5683 98.3816 13.5478C98.5745 13.5305 98.7011 13.4335 98.7614 13.2567C98.8122 13.1079 98.8217 12.867 98.7899 12.5341L98.6211 10.7002L95.2298 9.54274L94.398 10.4275C94.116 10.7364 93.9353 11.0071 93.8559 11.2397C93.7734 11.4816 93.792 11.701 93.9119 11.8977C94.0442 12.0883 94.2947 12.2673 94.6635 12.4347L94.5682 12.7138C94.2987 12.5906 93.8801 12.4322 93.3125 12.2385C92.745 12.0448 92.3355 11.9206 92.084 11.866L92.1793 11.5868C92.4527 11.6074 92.7144 11.5409 92.9642 11.3873C93.2172 11.2243 93.4847 10.9884 93.7667 10.6795L99.2325 4.75403L99.4558 4.83024L100.202 13.3276ZM98.6048 10.3829L98.2375 6.29984L95.4367 9.30172L98.6048 10.3829Z" fill="url(#paint29_linear_206_44)"/>
<path d="M109.426 8.86488C109.811 9.06252 110.09 9.26122 110.264 9.46096C110.451 9.65646 110.622 9.89355 110.777 10.1722C110.907 10.3935 111.024 10.5311 111.129 10.585C111.208 10.6254 111.291 10.6131 111.38 10.5481C111.473 10.4744 111.584 10.3437 111.714 10.156L112.016 10.311C111.738 10.7433 111.303 11.5366 110.71 12.6909L110.409 12.5359C110.68 11.8794 110.748 11.2404 110.614 10.6189C110.489 10.002 110.09 9.52063 109.416 9.17475C108.953 8.93668 108.505 8.86146 108.073 8.9491C107.65 9.04123 107.342 9.27532 107.149 9.65135C107.01 9.92244 106.954 10.1922 106.982 10.4607C107.019 10.7338 107.104 10.9985 107.237 11.255C107.384 11.5072 107.6 11.8393 107.886 12.2513L108.197 12.7098C108.591 13.2768 108.892 13.7572 109.098 14.1507C109.314 14.5488 109.446 14.9481 109.494 15.3488C109.547 15.7407 109.475 16.129 109.277 16.5138C108.913 17.2221 108.372 17.6405 107.654 17.769C106.949 17.8933 106.212 17.7577 105.443 17.3625C105.023 17.1469 104.7 16.9257 104.474 16.699C104.256 16.4768 104.063 16.2285 103.895 15.954C103.765 15.7328 103.648 15.5952 103.543 15.5413C103.465 15.5009 103.379 15.5175 103.286 15.5913C103.197 15.6563 103.088 15.7826 102.958 15.9702L102.657 15.8153C102.912 15.4047 103.423 14.4518 104.191 12.9564L104.493 13.1114C104.137 13.9561 104.018 14.7243 104.138 15.4159C104.258 16.1075 104.707 16.6532 105.486 17.053C105.923 17.2775 106.362 17.3483 106.802 17.2651C107.256 17.1777 107.609 16.8892 107.86 16.3995C108.009 16.1109 108.056 15.8146 108.002 15.5106C107.953 15.1979 107.833 14.8822 107.643 14.5636C107.453 14.245 107.176 13.8264 106.812 13.3081C106.284 12.5724 105.926 11.9244 105.739 11.364C105.551 10.8035 105.608 10.2304 105.909 9.64446C106.242 8.99734 106.736 8.61579 107.392 8.49982C108.057 8.38833 108.735 8.51002 109.426 8.86488Z" fill="url(#paint30_linear_206_44)"/>
<path d="M123.461 18.4799C123.164 18.2865 122.931 18.1642 122.761 18.113C122.599 18.0676 122.445 18.0948 122.299 18.1947C122.152 18.2947 121.969 18.4953 121.748 18.7966L118.296 23.5064C118.075 23.8077 117.939 24.0432 117.887 24.2129C117.836 24.3825 117.857 24.5377 117.949 24.6782C118.049 24.8246 118.235 25.0103 118.509 25.2354L118.335 25.4733C118.019 25.2054 117.521 24.8215 116.839 24.3217C116.204 23.8567 115.692 23.4996 115.302 23.2502L115.476 23.0123C115.773 23.2057 116.003 23.3251 116.165 23.3705C116.334 23.4217 116.492 23.3974 116.639 23.2975C116.785 23.1975 116.969 22.9969 117.19 22.6956L118.924 20.3288L115.297 17.6698L113.562 20.0366C113.341 20.3379 113.205 20.5734 113.154 20.743C113.103 20.9127 113.123 21.0678 113.215 21.2084C113.315 21.3548 113.502 21.5405 113.776 21.7656L113.601 22.0035C113.254 21.7123 112.759 21.3314 112.117 20.8606C111.435 20.3607 110.919 20.0007 110.568 19.7803L110.743 19.5425C111.04 19.7358 111.269 19.8552 111.431 19.9007C111.601 19.9519 111.759 19.9276 111.905 19.8276C112.051 19.7277 112.235 19.5271 112.456 19.2258L115.908 14.516C116.129 14.2147 116.265 13.9792 116.316 13.8095C116.368 13.6398 116.343 13.4818 116.243 13.3354C116.151 13.1949 115.968 13.012 115.695 12.7869L115.869 12.5491C116.185 12.817 116.683 13.2008 117.365 13.7007C118 14.1656 118.512 14.5228 118.902 14.7722L118.728 15.0101C118.43 14.8167 118.197 14.6944 118.027 14.6432C117.866 14.5977 117.712 14.625 117.565 14.7249C117.419 14.8248 117.235 15.0254 117.014 15.3267L115.471 17.4319L119.099 20.0909L120.642 17.9858C120.863 17.6845 120.999 17.449 121.05 17.2793C121.101 17.1097 121.077 16.9517 120.977 16.8053C120.885 16.6647 120.702 16.4819 120.428 16.2568L120.603 16.0189C120.95 16.3101 121.445 16.691 122.087 17.1618C122.769 17.6616 123.285 18.0217 123.636 18.242L123.461 18.4799Z" fill="url(#paint31_linear_206_44)"/>
<path d="M126.672 32.0379C126.6 32.5859 126.65 33.07 126.823 33.4903L126.611 33.695C126.304 33.3349 125.933 32.9283 125.496 32.4754C125.032 31.9942 124.588 31.5551 124.164 31.158L124.377 30.9533C124.602 31.1729 124.777 31.3186 124.9 31.3904C125.031 31.4554 125.129 31.4571 125.192 31.3957C125.263 31.3275 125.311 31.1927 125.335 30.9916L125.938 27.686C125.999 27.3534 125.998 27.0683 125.932 26.8307C125.874 26.5863 125.716 26.3227 125.457 26.0399L123.355 28.0667C123.086 28.326 122.912 28.5349 122.832 28.6934C122.753 28.8519 122.747 29.0082 122.813 29.1624C122.887 29.3236 123.039 29.5384 123.271 29.8069L123.059 30.0116C122.766 29.6656 122.343 29.206 121.791 28.6327C121.204 28.0241 120.756 27.5815 120.448 27.3047L120.661 27.1C120.921 27.3411 121.126 27.4978 121.278 27.5701C121.436 27.6494 121.596 27.6524 121.758 27.5788C121.919 27.5053 122.134 27.3388 122.403 27.0795L126.606 23.0259C126.875 22.7666 127.049 22.5577 127.129 22.3992C127.208 22.2408 127.211 22.0809 127.137 21.9197C127.071 21.7655 126.922 21.5542 126.69 21.2858L126.902 21.0811C127.168 21.3988 127.594 21.8619 128.181 22.4705C128.727 23.0366 129.171 23.4758 129.513 23.7879L129.3 23.9926C129.041 23.7515 128.831 23.5913 128.673 23.5119C128.521 23.4396 128.365 23.4403 128.204 23.5138C128.042 23.5874 127.827 23.7538 127.558 24.0131L125.637 25.8659C125.89 26.0999 126.172 26.2789 126.482 26.4027C126.8 26.5197 127.213 26.5863 127.72 26.6025L130.233 26.6169C130.58 26.6371 130.828 26.5755 130.977 26.4322C131.083 26.3299 131.117 26.1949 131.078 26.0273C131.039 25.8598 130.925 25.67 130.734 25.4579L130.936 25.2634C131.283 25.666 131.675 26.0938 132.112 26.5467C132.405 26.851 132.658 27.092 132.87 27.2697L132.668 27.4642C132.373 27.2572 132.094 27.1165 131.831 27.0422C131.569 26.9679 131.177 26.9226 130.655 26.9061L127.382 26.8467L126.672 32.0379Z" fill="url(#paint32_linear_206_44)"/>
<path d="M138.085 33.8317C138.595 34.5783 138.892 35.3343 138.974 36.0996C139.071 36.8674 138.936 37.6025 138.571 38.3049C138.213 39.0016 137.637 39.6219 136.842 40.1656C136.062 40.6982 135.262 41.0075 134.439 41.0934C133.63 41.1819 132.865 41.0558 132.144 40.7152C131.431 40.369 130.828 39.8348 130.334 39.1124C129.824 38.3658 129.52 37.6085 129.424 36.8407C129.342 36.0754 129.479 35.3444 129.836 34.6476C130.202 33.9453 130.782 33.3223 131.577 32.7785C132.356 32.2459 133.15 31.9354 133.959 31.8469C134.782 31.7609 135.55 31.8911 136.263 32.2372C136.984 32.5779 137.591 33.1094 138.085 33.8317ZM137.833 33.9328C137.494 33.4377 137.036 33.1076 136.459 32.9426C135.895 32.7801 135.264 32.7888 134.565 32.9687C133.875 33.1431 133.172 33.4744 132.458 33.9626C131.736 34.4564 131.177 35.0056 130.78 35.6101C130.383 36.2146 130.168 36.8143 130.134 37.4091C130.108 37.9984 130.259 38.5325 130.586 39.0113C130.925 39.5064 131.376 39.8352 131.94 39.9977C132.517 40.1628 133.151 40.1581 133.841 39.9837C134.54 39.8038 135.246 39.4697 135.961 38.9815C136.683 38.4877 137.242 37.9386 137.639 37.334C138.035 36.7295 138.247 36.1326 138.273 35.5433C138.307 34.9485 138.16 34.4116 137.833 33.9328Z" fill="url(#paint33_linear_206_44)"/>
<path d="M145.839 48.4885C146.013 48.8632 146.165 49.1558 146.295 49.3665L146.027 49.4904C145.849 49.2695 145.631 49.1267 145.373 49.0618C145.125 48.9927 144.732 48.9634 144.195 48.9737L136.214 49.1106L136.115 48.8965L141.744 42.4871C142.185 41.9901 142.328 41.5501 142.173 41.1672L142.44 41.0432C142.583 41.4214 142.79 41.9049 143.063 42.4936C143.418 43.2608 143.696 43.8256 143.896 44.1879L143.629 44.3118C143.458 43.99 143.3 43.7653 143.154 43.6378C143.013 43.5192 142.857 43.4991 142.688 43.5776C142.545 43.6437 142.364 43.8033 142.145 44.0562L138.019 48.7622L143.385 48.6987C143.97 48.6986 144.401 48.6345 144.678 48.5065C144.927 48.3908 145.064 48.219 145.089 47.991C145.126 47.7678 145.071 47.4736 144.924 47.1085L145.192 46.9846C145.289 47.2646 145.505 47.7659 145.839 48.4885Z" fill="url(#paint34_linear_206_44)"/>
<path d="M141.989 61.5132C141.478 61.9386 141.271 62.3522 141.368 62.7541L141.084 62.8367C141.003 62.4509 140.87 61.9418 140.685 61.3094C140.449 60.4977 140.259 59.8978 140.115 59.5096L140.398 59.4271C140.519 59.7708 140.64 60.0119 140.762 60.1504C140.887 60.2982 141.04 60.346 141.219 60.2938C141.37 60.2498 141.572 60.1191 141.827 59.9017L143.23 58.7092L142.227 55.2689L141.025 55.097C140.61 55.0439 140.285 55.0517 140.049 55.1204C139.804 55.1919 139.635 55.3333 139.543 55.5444C139.463 55.7623 139.461 56.0702 139.536 56.4682L139.253 56.5507C139.198 56.2593 139.087 55.8257 138.92 55.25C138.752 54.6742 138.618 54.2678 138.518 54.0306L138.801 53.9481C138.942 54.1837 139.146 54.3595 139.416 54.4756C139.695 54.5889 140.041 54.6721 140.456 54.7253L148.447 55.7911L148.513 56.0176L141.989 61.5132ZM143.48 58.5135L146.61 55.8656L142.544 55.2997L143.48 58.5135Z" fill="url(#paint35_linear_206_44)"/>
</g>
<defs>
<linearGradient id="paint0_linear_206_44" x1="144.702" y1="75.1139" x2="144.381" y2="83.2182" gradientUnits="userSpaceOnUse">
<stop stop-color="#00D4FF"/>
<stop offset="0.685144" stop-color="#00B2FF"/>
</linearGradient>
<linearGradient id="paint1_linear_206_44" x1="4.88617" y1="68.1155" x2="4.76617" y2="76.2252" gradientUnits="userSpaceOnUse">
<stop stop-color="#00D4FF"/>
<stop offset="0.685144" stop-color="#00B2FF"/>
</linearGradient>
<linearGradient id="paint2_linear_206_44" x1="13.4321" y1="91.5427" x2="-1.17145" y2="94.9687" gradientUnits="userSpaceOnUse">
<stop stop-color="#00D4FF"/>
<stop offset="0.685144" stop-color="#00B2FF"/>
</linearGradient>
<linearGradient id="paint3_linear_206_44" x1="15.9956" y1="100.011" x2="2.01187" y2="105.438" gradientUnits="userSpaceOnUse">
<stop stop-color="#00D4FF"/>
<stop offset="0.685144" stop-color="#00B2FF"/>
</linearGradient>
<linearGradient id="paint4_linear_206_44" x1="20.1456" y1="108.78" x2="7.17493" y2="116.314" gradientUnits="userSpaceOnUse">
<stop stop-color="#00D4FF"/>
<stop offset="0.685144" stop-color="#00B2FF"/>
</linearGradient>
<linearGradient id="paint5_linear_206_44" x1="25.9589" y1="117.258" x2="14.3293" y2="126.732" gradientUnits="userSpaceOnUse">
<stop stop-color="#00D4FF"/>
<stop offset="0.685144" stop-color="#00B2FF"/>
</linearGradient>
<linearGradient id="paint6_linear_206_44" x1="32.3714" y1="124.059" x2="22.2775" y2="135.155" gradientUnits="userSpaceOnUse">
<stop stop-color="#00D4FF"/>
<stop offset="0.685144" stop-color="#00B2FF"/>
</linearGradient>
<linearGradient id="paint7_linear_206_44" x1="39.4712" y1="129.681" x2="31.1425" y2="142.156" gradientUnits="userSpaceOnUse">
<stop stop-color="#00D4FF"/>
<stop offset="0.685144" stop-color="#00B2FF"/>
</linearGradient>
<linearGradient id="paint8_linear_206_44" x1="47.284" y1="134.215" x2="40.7289" y2="147.707" gradientUnits="userSpaceOnUse">
<stop stop-color="#00D4FF"/>
<stop offset="0.685144" stop-color="#00B2FF"/>
</linearGradient>
<linearGradient id="paint9_linear_206_44" x1="61.1412" y1="139.069" x2="57.994" y2="153.736" gradientUnits="userSpaceOnUse">
<stop stop-color="#00D4FF"/>
<stop offset="0.685144" stop-color="#00B2FF"/>
</linearGradient>
<linearGradient id="paint10_linear_206_44" x1="77.2398" y1="140.535" x2="77.8764" y2="155.522" gradientUnits="userSpaceOnUse">
<stop stop-color="#00D4FF"/>
<stop offset="0.685144" stop-color="#00B2FF"/>
</linearGradient>
<linearGradient id="paint11_linear_206_44" x1="86.0752" y1="139.592" x2="88.7729" y2="154.347" gradientUnits="userSpaceOnUse">
<stop stop-color="#00D4FF"/>
<stop offset="0.685144" stop-color="#00B2FF"/>
</linearGradient>
<linearGradient id="paint12_linear_206_44" x1="96.3035" y1="136.856" x2="101.467" y2="150.939" gradientUnits="userSpaceOnUse">
<stop stop-color="#00D4FF"/>
<stop offset="0.685144" stop-color="#00B2FF"/>
</linearGradient>
<linearGradient id="paint13_linear_206_44" x1="108.069" y1="131.164" x2="115.981" y2="143.907" gradientUnits="userSpaceOnUse">
<stop stop-color="#00D4FF"/>
<stop offset="0.685144" stop-color="#00B2FF"/>
</linearGradient>
<linearGradient id="paint14_linear_206_44" x1="115.965" y1="125.381" x2="125.773" y2="136.73" gradientUnits="userSpaceOnUse">
<stop stop-color="#00D4FF"/>
<stop offset="0.685144" stop-color="#00B2FF"/>
</linearGradient>
<linearGradient id="paint15_linear_206_44" x1="122.578" y1="118.796" x2="133.927" y2="128.605" gradientUnits="userSpaceOnUse">
<stop stop-color="#00D4FF"/>
<stop offset="0.685144" stop-color="#00B2FF"/>
</linearGradient>
<linearGradient id="paint16_linear_206_44" x1="127.932" y1="111.658" x2="140.588" y2="119.711" gradientUnits="userSpaceOnUse">
<stop stop-color="#00D4FF"/>
<stop offset="0.685144" stop-color="#00B2FF"/>
</linearGradient>
<linearGradient id="paint17_linear_206_44" x1="132.099" y1="104.105" x2="145.711" y2="110.408" gradientUnits="userSpaceOnUse">
<stop stop-color="#00D4FF"/>
<stop offset="0.685144" stop-color="#00B2FF"/>
</linearGradient>
<linearGradient id="paint18_linear_206_44" x1="135.08" y1="96.4166" x2="149.416" y2="100.831" gradientUnits="userSpaceOnUse">
<stop stop-color="#00D4FF"/>
<stop offset="0.685144" stop-color="#00B2FF"/>
</linearGradient>
<linearGradient id="paint19_linear_206_44" x1="-3.39221" y1="47.6932" x2="15.3065" y2="54.7896" gradientUnits="userSpaceOnUse">
<stop stop-color="#00D4FF"/>
<stop offset="0.685144" stop-color="#00B2FF"/>
</linearGradient>
<linearGradient id="paint20_linear_206_44" x1="2.10476" y1="36.0704" x2="19.509" y2="45.9239" gradientUnits="userSpaceOnUse">
<stop stop-color="#00D4FF"/>
<stop offset="0.685144" stop-color="#00B2FF"/>
</linearGradient>
<linearGradient id="paint21_linear_206_44" x1="8.58212" y1="26.3673" x2="24.4054" y2="38.5994" gradientUnits="userSpaceOnUse">
<stop stop-color="#00D4FF"/>
<stop offset="0.685144" stop-color="#00B2FF"/>
</linearGradient>
<linearGradient id="paint22_linear_206_44" x1="16.4685" y1="17.5309" x2="30.3514" y2="31.9276" gradientUnits="userSpaceOnUse">
<stop stop-color="#00D4FF"/>
<stop offset="0.685144" stop-color="#00B2FF"/>
</linearGradient>
<linearGradient id="paint23_linear_206_44" x1="27.1048" y1="8.76214" x2="38.5122" y2="25.1898" gradientUnits="userSpaceOnUse">
<stop stop-color="#00D4FF"/>
<stop offset="0.685144" stop-color="#00B2FF"/>
</linearGradient>
<linearGradient id="paint24_linear_206_44" x1="38.9172" y1="1.90951" x2="47.5235" y2="19.9631" gradientUnits="userSpaceOnUse">
<stop stop-color="#00D4FF"/>
<stop offset="0.685144" stop-color="#00B2FF"/>
</linearGradient>
<linearGradient id="paint25_linear_206_44" x1="48.0454" y1="-1.78733" x2="54.3625" y2="17.1888" gradientUnits="userSpaceOnUse">
<stop stop-color="#00D4FF"/>
<stop offset="0.685144" stop-color="#00B2FF"/>
</linearGradient>
<linearGradient id="paint26_linear_206_44" x1="58.681" y1="-4.60953" x2="62.5032" y2="15.0218" gradientUnits="userSpaceOnUse">
<stop stop-color="#00D4FF"/>
<stop offset="0.685144" stop-color="#00B2FF"/>
</linearGradient>
<linearGradient id="paint27_linear_206_44" x1="72.493" y1="-6.13804" x2="73.1104" y2="13.8524" gradientUnits="userSpaceOnUse">
<stop stop-color="#00D4FF"/>
<stop offset="0.685144" stop-color="#00B2FF"/>
</linearGradient>
<linearGradient id="paint28_linear_206_44" x1="90.2309" y1="-4.7524" x2="86.5589" y2="14.9076" gradientUnits="userSpaceOnUse">
<stop stop-color="#00D4FF"/>
<stop offset="0.685144" stop-color="#00B2FF"/>
</linearGradient>
<linearGradient id="paint29_linear_206_44" x1="102.026" y1="-1.64718" x2="95.566" y2="17.2808" gradientUnits="userSpaceOnUse">
<stop stop-color="#00D4FF"/>
<stop offset="0.685144" stop-color="#00B2FF"/>
</linearGradient>
<linearGradient id="paint30_linear_206_44" x1="112.746" y1="2.89437" x2="103.608" y2="20.6846" gradientUnits="userSpaceOnUse">
<stop stop-color="#00D4FF"/>
<stop offset="0.685144" stop-color="#00B2FF"/>
</linearGradient>
<linearGradient id="paint31_linear_206_44" x1="123.964" y1="9.76135" x2="112.14" y2="25.8919" gradientUnits="userSpaceOnUse">
<stop stop-color="#00D4FF"/>
<stop offset="0.685144" stop-color="#00B2FF"/>
</linearGradient>
<linearGradient id="paint32_linear_206_44" x1="135.007" y1="19.3517" x2="120.61" y2="33.2346" gradientUnits="userSpaceOnUse">
<stop stop-color="#00D4FF"/>
<stop offset="0.685144" stop-color="#00B2FF"/>
</linearGradient>
<linearGradient id="paint33_linear_206_44" x1="143.821" y1="30.1242" x2="127.31" y2="41.4112" gradientUnits="userSpaceOnUse">
<stop stop-color="#00D4FF"/>
<stop offset="0.685144" stop-color="#00B2FF"/>
</linearGradient>
<linearGradient id="paint34_linear_206_44" x1="150.943" y1="42.6646" x2="132.794" y2="51.0691" gradientUnits="userSpaceOnUse">
<stop stop-color="#00D4FF"/>
<stop offset="0.685144" stop-color="#00B2FF"/>
</linearGradient>
<linearGradient id="paint35_linear_206_44" x1="155.29" y1="54.3966" x2="136.089" y2="59.9926" gradientUnits="userSpaceOnUse">
<stop stop-color="#00D4FF"/>
<stop offset="0.685144" stop-color="#00B2FF"/>
</linearGradient>
<clipPath id="clip0_206_44">
<rect width="148.754" height="152.806" fill="white"/>
</clipPath>
</defs>
</svg>
